<svg width="768" height="728" viewBox="0 0 768 728" fill="none" xmlns="http://www.w3.org/2000/svg">
<path d="M509.952 391.616C540.491 391.616 565.248 366.859 565.248 336.32C565.248 305.781 540.491 281.024 509.952 281.024C479.413 281.024 454.656 305.781 454.656 336.32C454.656 366.859 479.413 391.616 509.952 391.616Z" fill="#393939"/>
<path d="M245.76 391.616C276.299 391.616 301.056 366.859 301.056 336.32C301.056 305.781 276.299 281.024 245.76 281.024C215.221 281.024 190.464 305.781 190.464 336.32C190.464 366.859 215.221 391.616 245.76 391.616Z" fill="#95D0D5"/>
<path d="M387.072 641.984C417.611 641.984 442.368 617.227 442.368 586.688C442.368 556.149 417.611 531.392 387.072 531.392C356.533 531.392 331.776 556.149 331.776 586.688C331.776 617.227 356.533 641.984 387.072 641.984Z" fill="#FD7E50"/>
<path d="M565.248 156.608C565.248 171.131 562.387 185.512 556.83 198.93C551.272 212.347 543.126 224.539 532.856 234.808C522.587 245.078 510.395 253.224 496.978 258.782C483.56 264.339 469.179 267.2 454.656 267.2L454.656 156.608H565.248Z" fill="#FD7E50"/>
<path d="M454.656 267.2C440.133 267.2 425.752 264.339 412.334 258.782C398.917 253.224 386.725 245.078 376.456 234.808C366.186 224.539 358.04 212.347 352.482 198.93C346.925 185.512 344.064 171.131 344.064 156.608L454.656 156.608L454.656 267.2Z" fill="#95D0D5"/>
<path d="M313.344 156.608C313.344 185.939 301.692 214.068 280.952 234.808C260.212 255.548 232.083 267.2 202.752 267.2L202.752 156.608H313.344Z" fill="#71357C"/>
<path d="M454.656 281.024C454.656 295.547 451.795 309.928 446.238 323.346C440.68 336.763 432.534 348.955 422.264 359.224C411.995 369.494 399.803 377.64 386.386 383.198C372.968 388.755 358.587 391.616 344.064 391.616L344.064 281.024H454.656Z" fill="#F35D5D"/>
<path d="M565.248 641.984C550.725 641.984 536.344 639.123 522.926 633.566C509.509 628.008 497.317 619.862 487.048 609.592C476.778 599.323 468.632 587.131 463.074 573.714C457.517 560.296 454.656 545.915 454.656 531.392L565.248 531.392L565.248 641.984Z" fill="#95D0D5"/>
<path d="M205.824 531.392C205.824 516.869 208.685 502.488 214.242 489.07C219.8 475.653 227.946 463.461 238.216 453.192C248.485 442.922 260.677 434.776 274.094 429.218C287.512 423.661 301.893 420.8 316.416 420.8L316.416 531.392L205.824 531.392Z" fill="#F35D5D"/>
<path d="M316.416 641.984C301.893 641.984 287.512 639.123 274.094 633.566C260.677 628.008 248.485 619.862 238.216 609.592C227.946 599.323 219.8 587.131 214.242 573.714C208.685 560.296 205.824 545.915 205.824 531.392L316.416 531.392L316.416 641.984Z" fill="#393939"/>
<path d="M565.248 408.512C565.248 423.035 562.387 437.416 556.83 450.834C551.272 464.251 543.126 476.443 532.856 486.712C522.587 496.982 510.395 505.128 496.978 510.686C483.56 516.243 469.179 519.104 454.656 519.104C440.133 519.104 425.752 516.243 412.334 510.686C398.917 505.128 386.725 496.982 376.456 486.712C366.186 476.443 358.04 464.251 352.482 450.834C346.925 437.416 344.064 423.035 344.064 408.512L454.656 408.512H565.248Z" fill="#71357C"/>
</svg>
